<svg xmlns="http://www.w3.org/2000/svg" xmlns:xlink="http://www.w3.org/1999/xlink" version="1.1" x="0px" y="0px" viewBox="0 0 512 512" style="enable-background:new 0 0 512 512;" xml:space="preserve"><g><g><path d="M434.813,184.305H132.18v92.011h302.632V184.305z M350.69,243.787L350.69,243.787c0-2.161-0.661-3.929-2.271-5.276    c-1.51-1.223-4.189-2.584-7.949-3.653c-6.746-2.046-11.721-4.205-15.244-6.922c-3.359-2.713-5.112-6.386-5.112-10.972    c0-4.608,2.034-8.405,5.938-11.243c3.908-3.003,8.889-4.477,14.963-4.477c6.192,0,11.164,1.635,15.08,5.012    c3.896,3.249,5.771,7.322,5.654,12.187l-0.156,0.152H350.69c0-2.59-0.814-4.634-2.552-6.241c-1.754-1.617-4.157-2.314-7.287-2.314    c-3.078,0-5.385,0.535-6.986,1.904c-1.604,1.365-2.42,3.107-2.42,5.15c0,1.894,0.815,3.385,2.557,4.61    c1.737,1.203,4.848,2.569,9.157,3.938c6.199,1.741,10.894,3.919,14,6.768c3.226,2.84,4.859,6.655,4.859,11.241    c0,4.858-1.882,8.681-5.653,11.396c-3.909,2.848-8.908,4.186-15.08,4.186c-6.075,0-11.469-1.624-15.902-4.749    c-4.591-3.107-6.861-7.562-6.75-13.259l0.153-0.278h10.902c0,3.373,1.087,5.813,3.094,7.446c2.022,1.482,4.876,2.296,8.503,2.296    c3.082,0,5.373-0.66,6.986-1.903C349.876,247.571,350.69,245.834,350.69,243.787z M289.023,249.763L289.023,249.763h24.907v8.651    h-36.082v-56.347h11.175V249.763z M247.388,222.115L247.388,222.115l10.511-20.047h13.075l-16.556,27.887l17.492,28.46h-13.605    l-10.758-20.323l-10.784,20.323h-13.202l17.114-28.46l-16.703-27.887h13.063L247.388,222.115z M216.294,258.414h-11.326v-9.904    h11.326V258.414z M259.986,145.646c-14.163,0-26.484-5.123-32.95-13.69c-2.306-3.049-1.675-7.39,1.366-9.684    c3.086-2.294,7.423-1.672,9.729,1.377c3.792,5.038,12.185,8.175,21.855,8.175h0.02c9.801,0,18.834-3.291,22.518-8.146    c2.295-3.078,6.652-3.681,9.694-1.405c3.09,2.294,3.696,6.634,1.413,9.684c-6.373,8.443-19.237,13.69-33.625,13.69    C260.006,145.646,260.006,145.646,259.986,145.646z M117.791,231.781c-3.166-0.362-6.176-0.804-9.043-1.357v211.863h103.856h0.369    h86.499h0.177h0.192h112.066V290.648H124.978c-3.987,0-7.187-3.201-7.187-7.154V231.781z M94.856,212.145v-64.701    c-11.288,13.668-21.983,33.937-16.99,48.667C80.373,203.502,86.654,208.636,94.856,212.145z M353.476,89.747L353.476,89.747h48.75    l-48.75-49.058V89.747z M411.908,103.563h-65.391c-3.82,0-6.93-3.097-6.93-6.922v-65.83h-230.84v99.847v0.152v0.171v85.36    c2.943,0.622,5.973,1.119,9.043,1.521v-40.735c0-3.95,3.2-7.162,7.187-7.162h286.931V103.563z M287.647,63.852    c6.34-1.759,13.362,0.955,16.733,6.902c4.173,7.208,1.753,16.27-5.394,20.334c-7.154,4.206-16.175,1.767-20.216-5.421    c-3.227-5.545-2.408-12.456,1.477-17.074c1.356,1.777,3.771,2.322,5.811,1.233C288.072,68.593,288.888,65.898,287.647,63.852z     M224.909,63.852c6.324-1.759,13.34,0.955,16.835,6.902c4.041,7.208,1.623,16.27-5.523,20.334    c-6.999,4.206-16.173,1.767-20.202-5.421c-3.238-5.545-2.417-12.456,1.489-17.074c1.324,1.777,3.902,2.322,5.78,1.233    C225.435,68.593,226.123,65.898,224.909,63.852z M388.547,411.81h-72.686h-0.186H204.968h-0.172h-72.674    c-3.848,0-6.954-3.105-6.954-6.911v-32.08v-0.152v-0.195v-31.9v-0.164v-0.176v-32.069c0-3.813,3.106-6.922,6.954-6.922h72.674    h0.172h110.708h0.186h72.686c3.832,0,6.93,3.109,6.93,6.922v32.069v0.176v0.164v31.9v0.195v0.152v32.08    C395.477,408.704,392.379,411.81,388.547,411.81z M308.746,333.488v-18.441h-96.824v18.441H308.746z M308.746,365.744v-18.443    h-96.824v18.443H308.746z M308.746,397.988v-18.439h-96.824v18.439H308.746z M322.618,379.549v18.439h58.979v-18.439H322.618z     M322.618,347.301v18.443h58.979v-18.443H322.618z M322.618,315.047v18.441h58.979v-18.441H322.618z M198.034,333.488v-18.441h-59    v18.441H198.034z M198.034,365.744v-18.443h-59v18.443H198.034z M198.034,397.988v-18.439h-59v18.439H198.034z M418.838,456.111    h-112.23v22.493l16.901,2.714c3.792,0.615,6.372,4.147,5.75,7.896c-0.55,3.413-3.475,5.812-6.846,5.812    c-0.341,0-0.726-0.008-1.111-0.064l-22.748-3.681c-3.358-0.523-5.818-3.421-5.818-6.806v-28.364h-73.004v22.493l16.914,2.714    c3.792,0.615,6.372,4.147,5.744,7.896c-0.544,3.413-3.475,5.812-6.836,5.812c-0.353,0-0.742-0.008-1.113-0.064l-22.746-3.681    c-3.367-0.523-5.842-3.421-5.842-6.806v-28.364H101.811c-3.824,0-6.954-3.105-6.954-6.922V226.925    c-15.896-5.375-26.01-14.17-30.129-26.378c-8.814-25.992,14.412-59.221,30.129-72.989V23.874c0-3.807,3.13-6.902,6.954-6.902    h244.707l0.277,0.018l0,0h0.076h0.039h0.209l0.021,0.028h0.076l0.068,0.02h0.021h0.076h0.039h0.037l0.076,0.01h0.02l0.097,0.028    l0,0h0.076l0.048,0.01h0.028l0.076,0.02h0.028l0.06,0.028l0.173,0.038l0.02,0.02h0.076h0.037l0.052,0.018l0.064,0.021l0,0    l0.076,0.038h0.048h0.04l0.068,0.038l0,0l0.085,0.036h0.039l0.113,0.049l0,0l0.088,0.028h0.027l0.068,0.032l0.076,0.018v0.021    l0.076,0.018l0.041,0.038h0.048l0.076,0.038l0,0l0.076,0.038h0.028l0.048,0.038l0.061,0.038l0.076,0.038h0.036l0.036,0.04    l0.08,0.038l0,0l0.076,0.038l0.153,0.076l0,0l0.088,0.038l0.008,0.018l0.068,0.02l0.057,0.038l0,0l0.056,0.068l0.04,0.008    l0.04,0.04l0.076,0.046l0,0l0.085,0.038l0.012,0.03l0.04,0.028l0.063,0.058l0,0l0.076,0.038l0.041,0.05l0.035,0.01l0.057,0.056    l0,0l0.061,0.048l0.036,0.038l0.052,0.04l0.045,0.038l0.067,0.056l0.04,0.018l0.028,0.038l0.068,0.058l0.056,0.058l0.041,0.038    l0.035,0.02l0.041,0.056l72.34,72.77l0,0l0.061,0.058l0.016,0.038l0.041,0.018l0.116,0.136l0.036,0.048v0.018l0.088,0.058l0,0    l0.028,0.076l0.048,0.038h0.021l0.056,0.086v0.01l0.04,0.065l0.036,0.038l0.021,0.02l0.056,0.058v0.018l0.041,0.058l0.04,0.058    l0.016,0.018l0.036,0.056l0.021,0.02l0.04,0.038l0.04,0.078l0,0l0.036,0.078l0.027,0.018l0.028,0.068l0.028,0.028l0.012,0.027    l0.049,0.078l0.02,0.018l0.021,0.04l0.028,0.074l0,0l0.067,0.076v0.04l0.04,0.047l0.017,0.074h0.02l0.04,0.078v0.018l0.017,0.058    l0.021,0.058v0.02l0.035,0.076l0.053,0.02v0.057l0.028,0.058v0.02l0.036,0.056v0.04l0.031,0.066l0.017,0.048v0.02l0.04,0.086    v0.018l0.028,0.066v0.067h0.028l0.02,0.076v0.038l0.036,0.048v0.076h0.021l0.02,0.076v0.04l0.021,0.041l0.02,0.076l0,0    l0.017,0.076l0.02,0.04v0.054l0.021,0.058v0.02l0.02,0.096v0.018v0.066l0.017,0.05l0.02,0.028v0.076v0.048l0.028,0.03v0.083    l0.012,0.02V95.8v0.02v0.134l0.017,0.02l0.02,0.076v0.018v0.058v0.078l0,0v0.189v0.038v0.038v0.086v0.018v0.067v0.068v73.255    h16.252c3.965,0,7.19,3.212,7.19,7.162v106.367c0,3.953-3.226,7.154-7.19,7.154h-16.252v158.541    C425.768,453.006,422.678,456.111,418.838,456.111z"></path></g></g></svg>