<?xml version="1.0" encoding="UTF-8"?>
<svg width="1200pt" height="1200pt" version="1.1" viewBox="0 0 1200 1200" xmlns="http://www.w3.org/2000/svg">
 <path d="m1019.1 431.96h-709.3v215.65h709.29v-215.65zm-197.16 139.41c0-5.0664-1.5508-9.207-5.3242-12.367-3.5391-2.8672-9.8164-6.0547-18.629-8.5625-15.812-4.7969-27.473-9.8555-35.727-16.223-7.8711-6.3594-11.98-14.969-11.98-25.715 0-10.801 4.7656-19.699 13.918-26.352 9.1602-7.0391 20.832-10.492 35.07-10.492 14.512 0 26.164 3.832 35.344 11.746 9.1328 7.6133 13.527 17.16 13.25 28.562l-0.36719 0.35547-25.555 0.003906c0-6.0703-1.9062-10.859-5.9805-14.629-4.1094-3.7891-9.7422-5.4219-17.078-5.4219-7.2148 0-12.621 1.2539-16.375 4.4609-3.7578 3.1992-5.6719 7.2812-5.6719 12.07 0 4.4375 1.9102 7.9336 5.9922 10.805 4.0703 2.8203 11.363 6.0195 21.461 9.2305 14.527 4.082 25.531 9.1836 32.812 15.863 7.5625 6.6562 11.387 15.598 11.387 26.348 0 11.387-4.4102 20.348-13.25 26.711-9.1602 6.6758-20.879 9.8125-35.344 9.8125-14.238 0-26.879-3.8047-37.27-11.129-10.762-7.2812-16.082-17.723-15.82-31.074l0.35938-0.65234h25.551c0 7.9062 2.5469 13.625 7.25 17.453 4.7383 3.4727 11.43 5.3828 19.93 5.3828 7.2227 0 12.594-1.5469 16.375-4.4609 3.7656-2.8555 5.6719-6.9297 5.6719-11.727zm-144.53 14.008h58.375v20.277h-84.566v-132.06h26.191zm-97.582-64.801 24.637-46.984h30.645l-38.805 65.359 40.996 66.703h-31.887l-25.215-47.633-25.273 47.633h-30.941l40.109-66.703-39.148-65.359h30.617zm-72.879 85.074h-26.547v-23.211h26.547zm102.41-264.3c-33.195 0-62.07-12.008-77.227-32.086-5.4062-7.1445-3.9258-17.32 3.2031-22.695 7.2344-5.375 17.398-3.918 22.801 3.2266 8.8867 11.809 28.559 19.16 51.223 19.16h0.046875c22.973 0 44.141-7.7148 52.777-19.094 5.3789-7.2148 15.59-8.6289 22.719-3.293 7.2422 5.375 8.6641 15.547 3.3125 22.695-14.938 19.789-45.086 32.086-78.809 32.086h-0.046875zm-333.27 201.88c-7.4219-0.84766-14.477-1.8828-21.195-3.1797v496.55h710.53v-355.41h-672.49c-9.3438 0-16.844-7.5039-16.844-16.766zm-53.754-46.023v-151.64c-26.457 32.035-51.523 79.539-39.82 114.06 5.875 17.324 20.594 29.359 39.82 37.582zm606.14-286.87h114.26l-114.26-114.98zm136.95 32.383h-153.26c-8.9531 0-16.242-7.2578-16.242-16.223v-154.29h-541.03v434.84c6.8984 1.457 14 2.6211 21.195 3.5664v-95.473c0-9.2578 7.5-16.785 16.844-16.785h672.5zm-291.24-93.074c14.859-4.1211 31.316 2.2383 39.219 16.176 9.7812 16.895 4.1094 38.133-12.641 47.656-16.766 9.8594-37.91 4.1406-47.383-12.707-7.5625-12.996-5.6445-29.195 3.4609-40.016 3.1797 4.1641 8.8398 5.4414 13.621 2.8906 4.7188-2.8867 6.6328-9.2031 3.7227-14zm-147.04 0c14.82-4.1211 31.266 2.2383 39.457 16.176 9.4727 16.895 3.8047 38.133-12.945 47.656-16.402 9.8594-37.906 4.1406-47.348-12.707-7.5898-12.996-5.6641-29.195 3.4883-40.016 3.1016 4.1641 9.1445 5.4414 13.547 2.8906 5.0352-2.8867 6.6484-9.2031 3.8008-14zm383.53 815.53h-600.99c-9.0195 0-16.297-7.2773-16.297-16.199v-226.72c0-8.9375 7.2812-16.223 16.297-16.223h601c8.9805 0 16.242 7.2852 16.242 16.223v226.72c-0.007812 8.918-7.2695 16.199-16.25 16.199zm-187.03-183.57v-43.223h-226.93v43.223zm0 75.598v-43.227h-226.93v43.227zm0 75.574v-43.215h-226.93v43.215zm32.512-43.219v43.215h138.23v-43.215zm0-75.578v43.227h138.23v-43.227zm0-75.598v43.223h138.23v-43.223zm-292 43.223v-43.223h-138.28v43.223zm0 75.598v-43.227h-138.28v43.227zm0 75.574v-43.215h-138.28v43.215zm517.51 136.23h-263.04v52.719l39.613 6.3594c8.8867 1.4414 14.934 9.7188 13.477 18.508-1.2891 8-8.1445 13.621-16.047 13.621-0.80078 0-1.7031-0.019531-2.6055-0.14844l-53.316-8.6289c-7.8711-1.2266-13.637-8.0195-13.637-15.953v-66.477h-171.1v52.719l39.641 6.3594c8.8867 1.4414 14.934 9.7188 13.461 18.508-1.2734 8-8.1445 13.621-16.023 13.621-0.82812 0-1.7383-0.019531-2.6094-0.14844l-53.312-8.6289c-7.8906-1.2266-13.691-8.0195-13.691-15.953v-66.477h-243.84c-8.9609 0-16.297-7.2773-16.297-16.223l-0.003907-520.93c-37.258-12.598-60.961-33.211-70.613-61.824-20.656-60.918 33.777-138.8 70.613-171.07v-243.01c0-8.9219 7.3359-16.176 16.297-16.176h573.53l0.64844 0.042968h0.75781l0.050781 0.066407h0.17969l0.16016 0.046875h0.40625l0.17969 0.023437h0.046875l0.22656 0.066407h0.17969l0.11328 0.023437h0.066406l0.17969 0.046875h0.066406l0.14062 0.066406 0.40625 0.089844 0.046875 0.046875h0.26562l0.12109 0.042969 0.14844 0.050781 0.17969 0.089844h0.20703l0.16016 0.089843 0.19922 0.085938h0.089844l0.26562 0.11328 0.20703 0.066407h0.0625l0.16016 0.074218 0.17969 0.042969v0.050781l0.17969 0.042969 0.097656 0.089844h0.11328l0.35938 0.17969h0.066406l0.11328 0.089844 0.14453 0.089844 0.17969 0.089844h0.085938l0.085937 0.09375 0.1875 0.089843 0.53906 0.26953 0.20703 0.089844 0.019531 0.042969 0.16016 0.046875 0.13281 0.089844 0.13281 0.16016 0.09375 0.019531 0.09375 0.09375 0.17969 0.10938 0.19922 0.089844 0.027344 0.070312 0.09375 0.066407 0.14844 0.13672 0.17969 0.089843 0.097657 0.11719 0.082031 0.023437 0.13281 0.13281 0.14453 0.11328 0.085937 0.089844 0.12109 0.09375 0.10547 0.089844 0.15625 0.13281 0.09375 0.042969 0.066406 0.089843 0.16016 0.13672 0.13281 0.13672 0.097656 0.089844 0.082031 0.046875 0.097656 0.13281 169.55 170.55 0.14453 0.13672 0.039062 0.089843 0.097657 0.042969 0.27344 0.32031 0.085937 0.11328v0.042968l0.20703 0.13672 0.066406 0.17969 0.11328 0.089843h0.050781l0.13281 0.20313v0.023437l0.09375 0.15234 0.085937 0.089843 0.050782 0.046876 0.13281 0.13672v0.042969l0.097656 0.13672 0.09375 0.13672 0.039063 0.042969 0.085937 0.13281 0.050782 0.046875 0.09375 0.089843 0.09375 0.18359 0.085937 0.18359 0.0625 0.042969 0.066407 0.16016 0.066406 0.066406 0.027344 0.0625 0.11328 0.18359 0.046875 0.042969 0.050781 0.09375 0.066406 0.17188 0.15625 0.17969v0.09375l0.09375 0.10938 0.039063 0.17188h0.046875l0.09375 0.18359v0.042969l0.039062 0.13672 0.050781 0.13672v0.046875l0.082032 0.17969 0.125 0.046875v0.13281l0.066406 0.13672v0.046875l0.085938 0.13281v0.09375l0.074218 0.15625 0.039063 0.11328v0.046875l0.09375 0.20312v0.042968l0.066406 0.15625v0.15625h0.066406l0.046875 0.17969v0.089844l0.085938 0.11328v0.17969h0.050781l0.046875 0.17969v0.09375l0.050781 0.097656 0.046875 0.17969 0.039063 0.17969 0.046875 0.09375v0.125l0.050781 0.13672v0.046875l0.046875 0.22656v0.19922l0.039062 0.11719 0.046876 0.066406v0.29297l0.066406 0.070312v0.19531l0.027344 0.046875-0.078126 0.082031v0.35938l0.039063 0.046875 0.046875 0.17969v173.24h38.09c9.293 0 16.852 7.5273 16.852 16.785v249.3c0 9.2656-7.5625 16.766-16.852 16.766h-38.09v371.58c-0.011719 8.9492-7.2539 16.227-16.254 16.227z" fill="#0c395f"/>
</svg>
