<svg width="361" height="72" fill="none" xmlns="http://www.w3.org/2000/svg"><g id="miis-logo"><path fill="#fff" d="M0 0h361v72H0z"/><g id="Group 80"><g id="Group" fill="#000"><path id="Vector" d="M117.315 36.507c-1.168 0-2.084.646-2.933 2.093 0-.02-.01-.048-.01-.067v-.242l.029-.308c.029-.232.048-.454.077-.685l.116-.994-3.598.367v.636l1.64.27.222 1.573v4.216l-.222 1.553-1.428.27v.637h5.258v-.636l-1.64-.27-.222-1.554V39.41a2.593 2.593 0 011.997-.993c.434 0 .858.145 1.206.309l.511-2.065a2.798 2.798 0 00-1.003-.154z"/><path id="Vector_2" d="M340.56 36.507c-1.167 0-2.084.646-2.933 2.093 0-.02-.009-.048-.009-.067v-.242l.029-.308c.029-.232.048-.454.077-.685l.116-.994-3.599.367v.636l1.64.27.222 1.573v4.216l-.222 1.553-1.428.27v.637h5.258v-.636l-1.64-.27-.222-1.554V39.41a2.595 2.595 0 011.997-.993c.434 0 .859.145 1.206.309l.511-2.065a2.795 2.795 0 00-1.003-.154z"/><g id="Group_2"><path id="Vector_3" d="M77.567 22.73l1.659-.328.203-2.065v-7.351l-.203-2.065-1.66-.328v-.617h4.429l1.042 3.01 3.097 8.046 3.174-8.066.964-2.99h4.429v.617l-1.64.328-.222 2.065v7.351l.222 2.065 1.64.328v.637h-5.654v-.637l1.64-.328.222-2.065v-8.972l-3.521 8.972-1.042 3.03h-1.35l-1.11-3.03-3.54-8.972v8.972l.221 2.065 1.64.328v.637h-4.64v-.637z"/><path id="Vector_4" d="M96.254 22.73l1.438-.27.202-1.553V16.69l-.203-1.573-1.64-.27v-.637l3.811-.367-.202 2.847v4.216l.202 1.553 1.438.27v.637h-5.036v-.637h-.01zm1.07-12.571a1.3 1.3 0 011.294-1.293c.694 0 1.292.57 1.292 1.312 0 .656-.53 1.274-1.292 1.274-.705-.01-1.293-.521-1.293-1.293z"/><path id="Vector_5" d="M102.1 19.228c0-3.194 2.007-5.451 4.921-5.451a6.61 6.61 0 011.572.183v-2.392l-.222-1.573-1.64-.27v-.637l3.83-.366-.221 2.846v9.339l.221 1.553 1.332.27v.637l-3.3.434.309-1.95c-.945 1.274-1.901 1.95-3.261 1.95-2.064 0-3.541-1.785-3.541-4.573zm6.493 1.89V15.05c-.569-.24-1.022-.366-1.659-.366-1.93 0-2.991 1.601-2.991 4.12 0 2.228.82 3.588 2.422 3.588.714-.01 1.476-.337 2.228-1.273z"/><path id="Vector_6" d="M112.636 19.228c0-3.194 2.006-5.451 4.92-5.451.569 0 1.023.058 1.572.183v-2.392l-.221-1.573-1.641-.27v-.637l3.831-.366-.222 2.846v9.339l.222 1.553 1.331.27v.637l-3.3.434.309-1.95c-.945 1.274-1.9 1.95-3.261 1.95-2.064 0-3.54-1.785-3.54-4.573zm6.492 1.89V15.05c-.569-.24-1.022-.366-1.659-.366-1.929 0-2.991 1.601-2.991 4.12 0 2.228.82 3.588 2.422 3.588.714-.01 1.466-.337 2.228-1.273z"/><path id="Vector_7" d="M123.721 22.73l1.437-.27.222-1.553v-9.34l-.222-1.572-1.64-.27v-.637l3.811-.366-.203 2.846v9.339l.222 1.553 1.409.27v.637h-5.036v-.637z"/><path id="Vector_8" d="M129.49 18.88c0-3.116 1.573-5.103 4.139-5.103 2.151 0 3.647 1.39 3.56 4.303h-5.924s-.019.29-.019.453c0 2.316 1.129 3.956 3.299 3.956.656 0 1.39-.164 2.113-.695l.415.55c-1.167 1.061-2.045 1.457-3.521 1.457-2.441 0-4.062-1.766-4.062-4.92zm4.467-1.62l1.389-.203c0-1.62-.762-2.46-1.881-2.46-1.148 0-1.949.859-2.171 2.663h2.663z"/><path id="Vector_9" d="M139.186 23.367v-11.8l-.203-1.572-1.64-.27v-.637l3.811-.366-.203 2.846v3.849c.763-1.003 1.862-1.64 3.117-1.64 1.968 0 3.338 1.679 3.338 4.283 0 3.175-1.901 5.731-5.596 5.731-.859.01-1.457.01-2.624-.424zm6.415-4.65c0-2.113-.897-3.541-2.276-3.541-.84 0-1.64.347-2.374 1.206v4.524l.203 1.785c.492.164.839.242 1.37.242 2.113.01 3.077-1.882 3.077-4.216z"/><path id="Vector_10" d="M149.779 20.598V16.69l-.222-1.573-1.601-.27v-.637l3.791-.367-.203 2.847v3.444c0 1.408.657 2.276 1.949 2.276.878 0 1.679-.53 2.258-1.225V16.69l-.203-1.573-1.601-.27v-.637l3.791-.367-.222 2.847v4.216l.222 1.553 1.476.27v.637l-3.463.366.222-1.843c-.965 1.332-1.824 1.901-3.28 1.901-1.814.01-2.914-1.138-2.914-3.193z"/><path id="Vector_11" d="M169.354 28.22v-.695l2.045-.328.878-1.438.878-2.064-2.865-7.005-.84-1.601-.926-.241v-.637h4.486v.637l-1.312.241.492 1.601 1.843 4.728 1.717-4.727.454-1.602-1.293-.241v-.637h3.685v.637l-1.042.241-.781 1.601-4.467 11.8-2.952-.27z"/><path id="Vector_12" d="M166.614 14.057c-1.167 0-2.084.646-2.933 2.093 0-.02-.01-.048-.01-.067v-.241l.029-.31c.029-.23.049-.453.078-.684l.115-.994-3.598.367v.636l1.64.27.222 1.573v4.216l-.222 1.553-1.428.27v.637h5.258v-.637l-1.64-.27-.222-1.553v-3.955a2.595 2.595 0 011.997-.994c.434 0 .859.145 1.206.309l.511-2.065a2.766 2.766 0 00-1.003-.154z"/></g><path id="Vector_13" d="M183.652 22.73l1.659-.328.203-2.065v-7.351l-.203-2.065-1.659-.328v-.617h5.653v.617l-1.659.328-.203 2.065v7.351l.203 2.065 1.659.328v.637h-5.653v-.637z"/><path id="Vector_14" d="M190.608 22.73l1.437-.27.222-1.553V16.69l-.222-1.573-1.64-.27v-.637l3.608-.367-.222 1.843c.84-1.293 1.901-1.9 3.3-1.9 1.765 0 2.904 1.167 2.904 3.193v3.936l.202 1.553 1.457.27v.637h-4.814v-.637l1.167-.27.203-1.553v-3.444c0-1.37-.656-2.296-1.949-2.296-.781 0-1.351.222-2.258 1.225v4.506l.222 1.553 1.168.27v.637h-4.795v-.637h.01z"/><path id="Vector_15" d="M202.985 23.241l-.164-2.392h.898l.347 1.572c.637.29 1.129.454 1.901.454 1.109 0 1.804-.55 1.804-1.496 0-1.187-1.129-1.534-2.19-1.93-1.293-.53-2.808-.983-2.808-2.826 0-1.553 1.274-2.972 3.444-2.972a6.36 6.36 0 012.721.599l.203 2.392h-.898l-.453-1.62a4.199 4.199 0 00-1.823-.406c-1.081 0-1.698.454-1.698 1.37 0 1.129 1.148 1.476 2.151 1.862 1.457.55 2.827 1.004 2.827 2.904 0 1.717-1.39 3.068-3.464 3.068-.665.02-1.814-.183-2.798-.579z"/><path id="Vector_16" d="M211.881 21.582V15.07h-1.602v-.734l1.602-.328v-2.354l1.765-.328v2.885h2.499v.859h-2.499v5.837c0 1.041.367 1.514 1.129 1.514.328 0 .878-.106 1.35-.405l.386.656c-1.022.82-1.698 1.129-2.624 1.129-1.003 0-2.006-.512-2.006-2.22z"/><path id="Vector_17" d="M217.582 22.73l1.438-.27.202-1.553V16.69l-.202-1.573-1.64-.27v-.637l3.81-.367-.202 2.847v4.216l.202 1.553 1.438.27v.637h-5.036v-.637h-.01zm1.071-12.571c0-.695.569-1.293 1.293-1.293.695 0 1.293.57 1.293 1.312 0 .656-.531 1.274-1.293 1.274-.704-.01-1.293-.521-1.293-1.293z"/><path id="Vector_18" d="M224.432 21.582V15.07h-1.602v-.734l1.602-.328v-2.354l1.765-.328v2.885h2.499v.859h-2.499v5.837c0 1.041.367 1.514 1.129 1.514.328 0 .878-.106 1.351-.405l.386.656c-1.023.82-1.698 1.129-2.624 1.129-1.004 0-2.007-.512-2.007-2.22z"/><path id="Vector_19" d="M231.658 20.598V16.69l-.222-1.573-1.601-.27v-.637l3.791-.367-.202 2.847v3.444c0 1.408.656 2.276 1.948 2.276.878 0 1.679-.53 2.258-1.225V16.69l-.203-1.573-1.601-.27v-.637l3.791-.367-.222 2.847v4.216l.222 1.553 1.476.27v.637l-3.463.366.222-1.843c-.965 1.332-1.824 1.901-3.28 1.901-1.814.01-2.914-1.138-2.914-3.193z"/><path id="Vector_20" d="M242.907 21.582V15.07h-1.601v-.734l1.601-.328v-2.354l1.766-.328v2.885h2.498v.859h-2.498v5.837c0 1.041.366 1.514 1.128 1.514.328 0 .878-.106 1.351-.405l.386.656c-1.023.82-1.698 1.129-2.624 1.129-1.003 0-2.007-.512-2.007-2.22z"/><path id="Vector_21" d="M248.233 18.88c0-3.116 1.572-5.103 4.138-5.103 2.152 0 3.647 1.39 3.56 4.303h-5.923s-.019.29-.019.453c0 2.316 1.128 3.956 3.299 3.956.656 0 1.389-.164 2.113-.695l.405.55c-1.167 1.061-2.045 1.457-3.521 1.457-2.432 0-4.052-1.766-4.052-4.92zm4.467-1.62l1.389-.203c0-1.62-.762-2.46-1.882-2.46-1.148 0-1.948.859-2.17 2.663h2.663z"/><path id="Vector_22" d="M261.816 20.79c0-2.46.82-4.466 2.74-5.98.782-.618 1.911-1.091 2.75-1.091 1.389 0 2.209 1.042 2.209 3.155 0 1.881-.598 3.704-1.804 4.959-1.129 1.225-2.46 1.948-3.753 1.948-1.302 0-2.142-1.003-2.142-2.99zm4.94.512c.675-1.023 1.061-2.393 1.061-3.994 0-1.438-.309-2.335-1.225-2.335-.695 0-1.274.328-1.862 1.148-.733.984-1.167 2.77-1.167 4.265 0 1.37.414 2.19 1.254 2.19.723-.01 1.379-.435 1.939-1.274z"/><path id="Vector_23" d="M266.071 28.239l.386-1.766c.637.251 1.331.434 1.929.434.531 0 .946-.202 1.245-.656.289-.434.511-1.022.675-1.823l1.882-9.339h-1.824v-.878h2.007l.058-.27c.434-1.949.897-3.068 1.929-4.014.859-.8 1.949-1.205 2.788-1.205.512 0 .927.057 1.641.202l-.406 1.881c-.858-.386-1.736-.617-2.315-.617-.386 0-.82.125-1.225.57-.454.491-.734 1.475-.84 3.443h2.132v.878h-2.276l-1.679 8.5c-.289 1.408-.965 2.663-1.949 3.521-.945.84-1.9 1.274-2.933 1.274-.241.01-.858-.03-1.225-.135z"/><path id="Vector_24" d="M77.547 45.18l1.66-.328.202-2.065v-7.351l-.202-2.065-1.66-.328v-.627h5.654v.617l-1.66.328-.202 2.065v7.352l.203 2.064 1.659.328v.637h-5.654v-.627z"/><path id="Vector_25" d="M84.503 45.18l1.438-.27.222-1.554V39.14l-.222-1.572-1.64-.27v-.637l3.608-.367-.222 1.843c.84-1.293 1.9-1.9 3.3-1.9 1.765 0 2.903 1.167 2.903 3.193v3.936l.203 1.553 1.457.27v.637h-4.814v-.637l1.167-.27.203-1.553v-3.444c0-1.37-.656-2.296-1.95-2.296-.78 0-1.35.222-2.257 1.225v4.505l.222 1.554 1.168.27v.636h-4.795v-.636h.01z"/><path id="Vector_26" d="M97.122 44.032V37.52h-1.601v-.734l1.601-.328v-2.354l1.766-.328v2.885h2.499v.859h-2.5v5.836c0 1.042.367 1.515 1.13 1.515.328 0 .878-.106 1.35-.405l.386.656c-1.022.82-1.698 1.129-2.624 1.129-1.003-.01-2.007-.521-2.007-2.22z"/><path id="Vector_27" d="M102.448 41.33c0-3.116 1.572-5.103 4.139-5.103 2.151 0 3.646 1.39 3.56 4.303h-5.924s-.019.29-.019.453c0 2.316 1.128 3.956 3.299 3.956.656 0 1.389-.164 2.113-.695l.405.55c-1.167 1.061-2.045 1.457-3.521 1.457-2.431-.01-4.052-1.766-4.052-4.92zm4.467-1.62l1.389-.203c0-1.62-.762-2.46-1.881-2.46-1.149 0-1.949.859-2.171 2.663h2.663z"/><path id="Vector_28" d="M119.379 45.18l1.438-.27.222-1.554V39.14l-.222-1.572-1.64-.27v-.637l3.608-.367-.222 1.843c.839-1.293 1.901-1.9 3.3-1.9 1.765 0 2.903 1.167 2.903 3.193v3.936l.203 1.553 1.457.27v.637h-4.814v-.637l1.167-.27.203-1.553v-3.444c0-1.37-.656-2.296-1.949-2.296-.782 0-1.351.222-2.258 1.225v4.505l.222 1.554 1.168.27v.636h-4.795v-.636h.009z"/><path id="Vector_29" d="M131.323 43.762c0-.898.386-1.66 1.206-2.258.801-.598 2.113-.897 3.975-.897v-1.11c0-1.292-.782-2.045-2.026-2.045-.762 0-1.515.309-2.19.926l-.512-.55c.927-1.042 2.171-1.698 3.628-1.698 1.64 0 2.827.878 2.827 2.904v4.322l.222 1.554 1.37.27v.636l-3.358.367.367-2.257c-.762 1.389-1.737 2.315-3.136 2.315-1.35 0-2.373-.916-2.373-2.48zm5.181-.386v-1.988c-1.206 0-2.065.164-2.624.512-.55.308-.84.8-.84 1.437 0 .8.55 1.457 1.351 1.457.685 0 1.505-.521 2.113-1.418z"/><path id="Vector_30" d="M141.55 44.032V37.52h-1.602v-.734l1.602-.328v-2.354l1.765-.328v2.885h2.499v.859h-2.499v5.836c0 1.042.367 1.515 1.129 1.515.328 0 .878-.106 1.35-.405l.386.656c-1.022.82-1.698 1.129-2.624 1.129-1.003-.01-2.006-.521-2.006-2.22z"/><path id="Vector_31" d="M147.261 45.18l1.437-.27.203-1.554V39.14l-.203-1.572-1.64-.27v-.637l3.811-.367-.202 2.846v4.216l.202 1.554 1.438.27v.636h-5.036v-.636h-.01zm1.061-12.58c0-.695.569-1.293 1.293-1.293.695 0 1.293.569 1.293 1.312 0 .656-.531 1.273-1.293 1.273-.695 0-1.293-.511-1.293-1.293z"/><path id="Vector_32" d="M152.876 41.35c0-2.953 1.601-5.142 4.631-5.142 2.624 0 4.36 1.765 4.36 4.958 0 3.117-1.862 5.104-4.592 5.104-2.614-.01-4.399-1.872-4.399-4.92zm7.023-.164c0-2.72-.878-4.12-2.498-4.12-1.641 0-2.538 1.293-2.538 4.139 0 2.788.878 4.177 2.48 4.177 1.64 0 2.556-1.35 2.556-4.196z"/><path id="Vector_33" d="M162.591 45.18l1.437-.27.222-1.554V39.14l-.222-1.572-1.64-.27v-.637l3.608-.367-.221 1.843c.839-1.293 1.9-1.9 3.299-1.9 1.766 0 2.904 1.167 2.904 3.193v3.936l.203 1.553 1.456.27v.637h-4.814v-.637l1.168-.27.202-1.553v-3.444c0-1.37-.656-2.296-1.949-2.296-.781 0-1.35.222-2.257 1.225v4.505l.222 1.554 1.167.27v.636h-4.795v-.636h.01z"/><path id="Vector_34" d="M174.544 43.762c0-.898.386-1.66 1.206-2.258.801-.598 2.113-.897 3.975-.897v-1.11c0-1.292-.781-2.045-2.026-2.045-.762 0-1.515.309-2.19.926l-.511-.55c.926-1.042 2.17-1.698 3.627-1.698 1.64 0 2.827.878 2.827 2.904v4.322l.222 1.554 1.37.27v.636l-3.358.367.367-2.257c-.762 1.389-1.736 2.315-3.135 2.315-1.351 0-2.374-.916-2.374-2.48zm5.181-.386v-1.988c-1.206 0-2.065.164-2.624.512-.55.308-.839.8-.839 1.437 0 .8.55 1.457 1.35 1.457.676 0 1.496-.521 2.113-1.418z"/><path id="Vector_35" d="M184.134 45.18l1.437-.27.222-1.554v-9.339l-.222-1.572-1.64-.27v-.637l3.811-.366-.202 2.845v9.34l.221 1.553 1.409.27v.636h-5.036v-.636z"/><path id="Vector_36" d="M194.534 45.508l-.202-3.116h1.041l.406 2.151c.694.328 1.331.598 2.17.598 1.862 0 3.213-.897 3.213-2.44 0-1.718-1.64-2.355-3.213-2.953-1.948-.733-3.666-1.514-3.666-3.868 0-2.065 1.573-3.956 4.631-3.956 1.042 0 2.335.29 3.444.695l.222 3.096h-1.022l-.454-2.19c-.637-.385-1.621-.617-2.228-.617-2.026 0-3.03 1.129-3.03 2.296 0 1.66 1.438 2.132 2.866 2.702 2.093.839 4.052 1.717 4.052 4.235 0 2.44-1.969 4.032-4.921 4.032-.993.01-1.852-.096-3.309-.665z"/><path id="Vector_37" d="M205.233 44.032V37.52h-1.601v-.734l1.601-.328v-2.354l1.766-.328v2.885h2.499v.859h-2.499v5.836c0 1.042.366 1.515 1.129 1.515.328 0 .878-.106 1.35-.405l.386.656c-1.022.82-1.698 1.129-2.624 1.129-1.003-.01-2.007-.521-2.007-2.22z"/><path id="Vector_38" d="M212.392 43.048V39.13l-.222-1.573-1.602-.27v-.627l3.792-.367-.203 2.846v3.445c0 1.408.656 2.276 1.949 2.276.878 0 1.679-.53 2.258-1.225V39.15l-.203-1.572-1.601-.27v-.647l3.791-.367-.222 2.846v4.216l.222 1.554 1.476.27v.636l-3.463.367.222-1.843c-.965 1.332-1.824 1.901-3.281 1.901-1.813 0-2.913-1.148-2.913-3.193z"/><path id="Vector_39" d="M222.367 41.678c0-3.194 2.007-5.451 4.921-5.451a6.61 6.61 0 011.572.183v-2.392l-.222-1.573-1.64-.27v-.637l3.83-.366-.222 2.845v9.34l.222 1.553 1.332.27v.636l-3.3.435.309-1.95c-.945 1.274-1.901 1.95-3.261 1.95-2.064-.01-3.541-1.785-3.541-4.573zm6.493 1.881V37.5c-.579-.24-1.022-.366-1.659-.366-1.93 0-2.991 1.601-2.991 4.12 0 2.228.82 3.588 2.422 3.588.714-.01 1.466-.337 2.228-1.283z"/><path id="Vector_40" d="M233.24 45.18l1.438-.27.202-1.554V39.14l-.202-1.572-1.64-.27v-.637l3.811-.367-.203 2.846v4.216l.203 1.554 1.437.27v.636h-5.036v-.636h-.01zm1.071-12.58c0-.695.569-1.293 1.293-1.293.695 0 1.293.569 1.293 1.312 0 .656-.531 1.273-1.293 1.273-.704 0-1.293-.511-1.293-1.293z"/><path id="Vector_41" d="M238.913 41.33c0-3.116 1.573-5.103 4.139-5.103 2.151 0 3.647 1.39 3.56 4.303h-5.924s-.019.29-.019.453c0 2.316 1.129 3.956 3.299 3.956.656 0 1.39-.164 2.113-.695l.405.55c-1.167 1.061-2.045 1.457-3.521 1.457-2.431-.01-4.052-1.766-4.052-4.92zm4.467-1.62l1.389-.203c0-1.62-.762-2.46-1.881-2.46-1.148 0-1.949.859-2.171 2.663h2.663z"/><path id="Vector_42" d="M248.194 45.691l-.164-2.393h.897l.348 1.573c.636.29 1.128.453 1.9.453 1.11 0 1.804-.55 1.804-1.495 0-1.187-1.128-1.534-2.19-1.93-1.293-.53-2.807-.983-2.807-2.826 0-1.553 1.273-2.972 3.444-2.972.926 0 1.823.184 2.721.599l.202 2.392h-.897l-.453-1.62a4.202 4.202 0 00-1.824-.406c-1.09 0-1.698.454-1.698 1.37 0 1.129 1.148 1.476 2.152 1.862 1.456.55 2.826 1.003 2.826 2.904 0 1.717-1.389 3.068-3.463 3.068-.666.02-1.814-.193-2.798-.579z"/><path id="Vector_43" d="M259.81 43.762c0-.898.386-1.66 1.206-2.258.8-.598 2.112-.897 3.974-.897v-1.11c0-1.292-.781-2.045-2.026-2.045-.762 0-1.514.309-2.19.926l-.511-.55c.917-1.042 2.171-1.698 3.628-1.698 1.64 0 2.826.878 2.826 2.904v4.322l.222 1.554 1.37.27v.636l-3.357.367.366-2.257c-.762 1.389-1.736 2.315-3.135 2.315-1.341 0-2.373-.916-2.373-2.48zm5.19-.386v-1.988c-1.206 0-2.064.164-2.624.512-.55.308-.839.8-.839 1.437 0 .8.55 1.457 1.35 1.457.676 0 1.496-.521 2.113-1.418z"/><path id="Vector_44" d="M270.036 44.032V37.52h-1.601v-.734l1.601-.328v-2.354l1.766-.328v2.885h2.498v.859h-2.498v5.836c0 1.042.366 1.515 1.128 1.515.328 0 .878-.106 1.351-.405l.386.656c-1.023.82-1.698 1.129-2.624 1.129-.994-.01-2.007-.521-2.007-2.22z"/><path id="Vector_45" d="M279.404 45.18l1.659-.328.203-2.065v-7.351l-.203-2.065-1.659-.328v-.627h4.428l1.042 3.01 3.097 8.046 3.174-8.065.965-2.991h4.428v.617l-1.64.328-.222 2.065v7.352l.222 2.064 1.64.328v.637h-5.653v-.637l1.64-.328.222-2.064v-8.973l-3.522 8.973-1.042 3.029h-1.331l-1.109-3.03-3.541-8.972v8.973l.222 2.064 1.64.328v.637h-4.65v-.627h-.01z"/><path id="Vector_46" d="M297.416 41.35c0-2.953 1.602-5.142 4.631-5.142 2.624 0 4.361 1.765 4.361 4.958 0 3.117-1.862 5.104-4.593 5.104-2.614-.01-4.399-1.872-4.399-4.92zm7.024-.164c0-2.72-.878-4.12-2.499-4.12-1.64 0-2.537 1.293-2.537 4.139 0 2.788.877 4.177 2.479 4.177 1.64 0 2.557-1.35 2.557-4.196z"/><path id="Vector_47" d="M307.343 45.18l1.438-.27.222-1.554V39.14l-.222-1.572-1.64-.27v-.637l3.608-.367-.222 1.843c.84-1.293 1.901-1.9 3.3-1.9 1.765 0 2.904 1.167 2.904 3.193v3.936l.202 1.553 1.457.27v.637h-4.814v-.637l1.167-.27.203-1.553v-3.444c0-1.37-.656-2.296-1.949-2.296-.781 0-1.351.222-2.258 1.225v4.505l.222 1.554 1.168.27v.636h-4.795v-.636h.009z"/><path id="Vector_48" d="M320.155 44.032V37.52h-1.601v-.734l1.601-.328v-2.354l1.766-.328v2.885h2.499v.859h-2.499v5.836c0 1.042.367 1.515 1.129 1.515.328 0 .878-.106 1.35-.405l.386.656c-1.022.82-1.698 1.129-2.624 1.129-1.003-.01-2.007-.521-2.007-2.22z"/><path id="Vector_49" d="M325.481 41.33c0-3.116 1.573-5.103 4.139-5.103 2.151 0 3.647 1.39 3.56 4.303h-5.924s-.019.29-.019.453c0 2.316 1.129 3.956 3.299 3.956.656 0 1.39-.164 2.113-.695l.405.55c-1.167 1.061-2.045 1.457-3.521 1.457-2.431-.01-4.052-1.766-4.052-4.92zm4.467-1.62l1.389-.203c0-1.62-.762-2.46-1.881-2.46-1.148 0-1.949.859-2.171 2.663h2.663z"/><path id="Vector_50" d="M342.104 41.33c0-3.116 1.572-5.103 4.139-5.103 2.151 0 3.646 1.39 3.56 4.303h-5.924s-.019.29-.019.453c0 2.316 1.128 3.956 3.299 3.956.656 0 1.389-.164 2.113-.695l.405.55c-1.167 1.061-2.045 1.457-3.521 1.457-2.431-.01-4.052-1.766-4.052-4.92zm4.467-1.62l1.389-.203c0-1.62-.762-2.46-1.881-2.46-1.148 0-1.949.859-2.171 2.663h2.663z"/><path id="Vector_51" d="M351.375 50.67v-.695l2.045-.328.878-1.438.878-2.064-2.865-7.005-.839-1.601-.927-.241v-.637h4.487v.637l-1.313.24.492 1.602 1.843 4.728 1.717-4.728.454-1.601-1.293-.241v-.637h3.686v.637l-1.042.24-.782 1.602-4.467 11.8-2.952-.27z"/></g><g id="Group_3" fill="#0D395F"><path id="Vector_52" d="M35.709 32.039v-1.68h-1.68a1.476 1.476 0 00-1.458-1.275c-.748 0-1.358.554-1.458 1.275h-1.68v1.68a1.472 1.472 0 000 2.916v1.68h1.68c.11.71.715 1.253 1.453 1.253a1.48 1.48 0 001.458-1.253h1.68v-1.68a1.475 1.475 0 001.264-1.458 1.47 1.47 0 00-1.259-1.458z"/><path id="Vector_53" d="M0 0v33.065c0 .238.061 5.993 4.086 13.688 3.687 7.052 11.565 17.125 28.147 25.08l.35.167.348-.166c16.6-7.956 24.466-18.035 28.142-25.081 4.014-7.695 4.058-13.45 4.058-13.688V0H0zm63.512 33.06c0 .056-.06 5.672-3.925 13.034-3.543 6.753-11.105 16.394-27.005 24.105-15.889-7.706-23.457-17.352-27.01-24.105-3.876-7.363-3.948-12.979-3.948-13.034V1.625h61.888v31.434z"/><path id="Vector_54" d="M21.15 32.654v1.896l-3.514.006v.011c-.755-.006-1.453.466-1.658 1.186-.194.688.238 1.398.964 1.58.583.15 1.176-.177 1.331-.731a.799.799 0 00-.272-.837l4.37-.006v-1.93c2.344-.266 4.213-2.05 4.5-4.302h1.841v-.61c0-2.017 1.736-3.653 3.87-3.653 2.135 0 3.87 1.641 3.87 3.654v.61h1.763c.288 2.24 2.145 4.019 4.48 4.285l.005 1.98h4.208a.794.794 0 00-.239.864c.189.543.804.837 1.375.654.716-.227 1.104-.953.865-1.63-.216-.626-.798-1.036-1.441-1.097v-.012h-3.554l-.005-1.945h-.61c-2.151 0-3.903-1.664-3.903-3.71v-.61h-1.769c-.316-2.4-2.456-4.262-5.045-4.262s-4.734 1.862-5.045 4.263h-1.84v.61c0 2.056-1.764 3.73-3.931 3.73h-.616v.006z"/><path id="Vector_55" d="M30.542 55.38c-.505 0-.843.426-.843 1.086 0 .62.322 1.009.843 1.009.294 0 .521-.1.782-.338.06-.222.077-.36.077-.583 0-.72-.338-1.175-.86-1.175z"/><path id="Vector_56" d="M32.516 47.44c-6.714 0-12.158 5.444-12.158 12.158v.327c3.348 2.623 7.373 5.173 12.23 7.496 4.79-2.29 8.77-4.801 12.086-7.385v-.443c-.006-6.709-5.445-12.153-12.158-12.153zm-4.33 12.69H25.64v-.715h.931V55.85c-.083.05-.327.211-.549.31a8.368 8.368 0 01-.61.267l-.215-.471 1.613-1.131h.626v4.596h.749v.71zm2.977-.881c-.505.477-1.203.887-1.885 1.037l-.444-.516c.239-.044.4-.1.621-.205.599-.277 1.176-.726 1.503-1.264.06-.1.127-.239.183-.366a1.498 1.498 0 01-.765.205c-.91 0-1.603-.704-1.603-1.658 0-1.009.776-1.763 1.802-1.763 1.159 0 1.747.904 1.747 1.985-.006.96-.41 1.84-1.16 2.545zm3.88.698c-.37.194-.853.305-1.341.305-.244 0-.344-.005-.582-.06l-.178-.638c.267.083.422.11.671.11.882 0 1.525-.532 1.525-1.252 0-.599-.4-.91-.992-.91-.344 0-.688.061-1.065.206l.25-2.822h2.505l-.133.726h-1.58l-.122 1.264c.211-.033.272-.039.438-.039.904 0 1.636.56 1.636 1.497 0 .682-.405 1.297-1.031 1.613zm3.87 0c-.371.194-.853.305-1.341.305-.244 0-.344-.005-.582-.06l-.178-.638c.266.083.422.11.671.11.882 0 1.525-.532 1.525-1.252 0-.599-.4-.91-.987-.91-.344 0-.688.061-1.065.206l.239-2.822H39.7l-.133.726h-1.58l-.123 1.264c.211-.033.272-.039.438-.039.904 0 1.636.56 1.636 1.497 0 .682-.405 1.297-1.026 1.613z"/><path id="Vector_57" d="M19.393 13.832h-2.44v2.44h2.756a13.78 13.78 0 00-.316-2.44z"/><path id="Vector_58" d="M19.033 21.14h-2.08v2.733c.788-.333 1.553-1.303 2.08-2.734z"/><path id="Vector_59" d="M16.954 9.88v2.733h2.079c-.527-1.43-1.292-2.4-2.08-2.733z"/><path id="Vector_60" d="M19.709 17.486h-2.755v2.44h2.439c.166-.738.277-1.553.316-2.44z"/><path id="Vector_61" d="M22.07 12.613a7.207 7.207 0 00-2.838-2.273c.433.626.799 1.397 1.081 2.273h1.758z"/><path id="Vector_62" d="M20.923 16.266h2.54a7.108 7.108 0 00-.66-2.44h-2.174c.161.766.26 1.586.294 2.44z"/><path id="Vector_63" d="M19.227 23.412a7.208 7.208 0 002.838-2.273h-1.757c-.283.876-.649 1.647-1.081 2.273z"/><path id="Vector_64" d="M20.63 19.925h2.172a7.108 7.108 0 00.66-2.44h-2.539a14.56 14.56 0 01-.294 2.44z"/><path id="Vector_65" d="M10.617 21.14a7.207 7.207 0 002.838 2.272c-.432-.626-.798-1.397-1.08-2.273h-1.758z"/><path id="Vector_66" d="M11.759 17.486h-2.54c.073.865.306 1.685.66 2.44h2.174c-.161-.766-.26-1.58-.294-2.44z"/><path id="Vector_67" d="M13.455 10.34a7.207 7.207 0 00-2.838 2.273h1.757c.283-.876.649-1.647 1.081-2.273z"/><path id="Vector_68" d="M12.053 13.832H9.879a7.074 7.074 0 00-.66 2.44h2.54c.033-.86.133-1.68.294-2.44z"/><path id="Vector_69" d="M15.734 23.878v-2.733h-2.08c.522 1.425 1.287 2.395 2.08 2.733z"/><path id="Vector_70" d="M4.601 36.701c.854 3.726 2.911 9.459 7.834 15.507v-7.911h40.089l-.006 8.183c5.079-6.149 7.169-11.998 8.028-15.779.604-2.644.604-4.274.604-4.274V3.987H3.986v28.44s.006 1.636.615 4.274zm49.908 5.023c-.028-.01-.061-.027-.09-.033h-.054c-.91.283-.965 1.33-.965 1.33v.472h-1.192v-.738s-.056-.992-.965-1.264h-.055c-.91.272-.965 1.264-.965 1.264v.738h-1.425v-.738s-.055-.992-.97-1.264h-.055c-.91.272-.965 1.264-.965 1.264v.738h-1.392v-.738s-.055-.992-.964-1.264h-.056c-.909.272-.97 1.264-.97 1.264v.738H41.98v-.738s-.055-.992-.97-1.264h-.056c-.909.272-.964 1.264-.964 1.264v.738h-1.41v-.738s-.056-.992-.965-1.264h-.055c-.91.272-.97 1.264-.97 1.264v.738h-1.392v-.738s-.056-.992-.965-1.264h-.055c-.91.272-.965 1.264-.965 1.264v.738h-1.447v-.738s-.055-.992-.965-1.264h-.055c-.91.272-.965 1.264-.965 1.264v.738h-1.386v-.738s-.055-.992-.964-1.264h-.056c-.909.272-.964 1.264-.964 1.264v.738h-1.464v-.738s-.056-.992-.97-1.264h-.056c-.909.272-.964 1.264-.964 1.264v.738h-1.392v-.738s-.055-.992-.964-1.264h-.061c-.91.272-.965 1.264-.965 1.264v.738h-1.43v-.738s-.056-.992-.965-1.264h-.056c-.909.272-.964 1.264-.964 1.264v.738h-1.386v-.738s-.056-.992-.965-1.264h-.055c-.91.272-.965 1.264-.965 1.264v.738h-1.192v-.471s-.055-1.043-.965-1.331h-.055v-.654h43.947v.687h-.016zM49.075 13.5c1.58-2.872 5.09-2.928 5.09-2.928.05-.055 0 8.732 0 8.732s-3.51.056-5.09 2.928V13.5zm-6.33-3.005s3.475.055 5.033 2.927v8.732c-1.563-2.872-5.034-2.927-5.034-2.927s-.05-8.787 0-8.732zm-2.617.826h1.302v8.704l7.052 4.136 7.047-4.13v-8.71h1.302v9.452l-8.349 4.896-8.355-4.896v-9.452zm-7.574 11.143c2.711 0 5.212 1.913 6.16 4.308l2.19-.005v2.095c0 1.314 1.325 2.234 2.955 2.234h1.585l.006 1.98 4.773-.006.006 5.389h5.654v1.42H9.175v-1.42h5.55v-5.356l4.917.006v-2.013h1.486c1.636 0 2.955-.92 2.955-2.234l-.005-2.106h2.25c.948-2.379 3.526-4.292 6.226-4.292zM16.344 8.51c4.612 0 8.366 3.754 8.366 8.366 0 4.613-3.754 8.366-8.366 8.366-4.613 0-8.366-3.753-8.366-8.366-.006-4.613 3.748-8.366 8.366-8.366z"/><path id="Vector_71" d="M13.294 19.925h2.44v-2.44h-2.755c.033.888.144 1.703.316 2.44z"/><path id="Vector_72" d="M15.734 9.88c-.793.332-1.558 1.302-2.08 2.733h2.08V9.88z"/><path id="Vector_73" d="M12.979 16.266h2.755v-2.44h-2.44a12.948 12.948 0 00-.316 2.44z"/></g></g></g></svg>